<svg xmlns="http://www.w3.org/2000/svg" xmlns:xlink="http://www.w3.org/1999/xlink" contentStyleType="text/css" data-diagram-type="DESCRIPTION" height="599px" preserveAspectRatio="none" style="width:1335px;height:599px;background:#FFFFFF;" version="1.1" viewBox="0 0 1335 599" width="1335px" zoomAndPan="magnify"><defs/><g><!--cluster sampling--><g class="cluster" data-entity="sampling" data-source-line="4" data-uid="ent0002" id="cluster_sampling"><path d="M386.5,140.29 L459.4756,140.29 A3.75,3.75 0 0 1 461.9756,142.79 L468.9756,162.5869 L553.5,162.5869 A2.5,2.5 0 0 1 556,165.0869 L556,225.09 A2.5,2.5 0 0 1 553.5,227.59 L386.5,227.59 A2.5,2.5 0 0 1 384,225.09 L384,142.79 A2.5,2.5 0 0 1 386.5,140.29" fill="none" style="stroke:#000000;stroke-width:1.5;"/><line style="stroke:#000000;stroke-width:1.5;" x1="384" x2="468.9756" y1="162.5869" y2="162.5869"/><text fill="#000000" font-family="sans-serif" font-size="14" font-weight="bold" lengthAdjust="spacing" textLength="71.9756" x="388" y="155.2851">sampling</text></g><!--cluster scatter--><g class="cluster" data-entity="scatter" data-source-line="8" data-uid="ent0004" id="cluster_scatter"><path d="M8.5,6 L65.3633,6 A3.75,3.75 0 0 1 67.8633,8.5 L74.8633,28.2969 L357.5,28.2969 A2.5,2.5 0 0 1 360,30.7969 L360,361.39 A2.5,2.5 0 0 1 357.5,363.89 L8.5,363.89 A2.5,2.5 0 0 1 6,361.39 L6,8.5 A2.5,2.5 0 0 1 8.5,6" fill="none" style="stroke:#000000;stroke-width:1.5;"/><line style="stroke:#000000;stroke-width:1.5;" x1="6" x2="74.8633" y1="28.2969" y2="28.2969"/><text fill="#000000" font-family="sans-serif" font-size="14" font-weight="bold" lengthAdjust="spacing" textLength="55.8633" x="10" y="20.9951">scatter</text></g><!--cluster fieldgraph--><g class="cluster" data-entity="fieldgraph" data-source-line="15" data-uid="ent0009" id="cluster_fieldgraph"><path d="M386.5,276.59 L469.0664,276.59 A3.75,3.75 0 0 1 471.5664,279.09 L478.5664,298.8869 L1174.5,298.8869 A2.5,2.5 0 0 1 1177,301.3869 L1177,589.98 A2.5,2.5 0 0 1 1174.5,592.48 L386.5,592.48 A2.5,2.5 0 0 1 384,589.98 L384,279.09 A2.5,2.5 0 0 1 386.5,276.59" fill="none" style="stroke:#000000;stroke-width:1.5;"/><line style="stroke:#000000;stroke-width:1.5;" x1="384" x2="478.5664" y1="298.8869" y2="298.8869"/><text fill="#000000" font-family="sans-serif" font-size="14" font-weight="bold" lengthAdjust="spacing" textLength="81.5664" x="388" y="291.5851">fieldgraph</text></g><!--entity PositionSampling--><g class="entity" data-entity="PositionSampling" data-source-line="5" data-uid="ent0003" id="entity_PositionSampling"><rect fill="#F1F1F1" height="36.2969" rx="2.5" ry="2.5" style="stroke:#181818;stroke-width:0.5;" width="140.5381" x="399.73" y="175.29"/><text fill="#000000" font-family="sans-serif" font-size="14" lengthAdjust="spacing" textLength="120.5381" x="409.73" y="198.2851">PositionSampling</text></g><!--entity ScatterRunner--><g class="entity" data-entity="ScatterRunner" data-source-line="9" data-uid="ent0005" id="entity_ScatterRunner"><rect fill="#F1F1F1" height="36.2969" rx="2.5" ry="2.5" style="stroke:#181818;stroke-width:0.5;" width="121.2266" x="192.39" y="41"/><text fill="#000000" font-family="sans-serif" font-size="14" lengthAdjust="spacing" textLength="101.2266" x="202.39" y="63.9951">ScatterRunner</text></g><!--entity Plan--><g class="entity" data-entity="Plan" data-source-line="10" data-uid="ent0006" id="entity_Plan"><rect fill="#F1F1F1" height="36.2969" rx="2.5" ry="2.5" style="stroke:#181818;stroke-width:0.5;" width="49.7842" x="58.11" y="175.29"/><text fill="#000000" font-family="sans-serif" font-size="14" lengthAdjust="spacing" textLength="29.7842" x="68.11" y="198.2851">Plan</text></g><!--entity Kind--><g class="entity" data-entity="Kind" data-source-line="11" data-uid="ent0007" id="entity_Kind"><rect fill="#F1F1F1" height="36.2969" rx="2.5" ry="2.5" style="stroke:#181818;stroke-width:0.5;" width="50.8301" x="188.58" y="311.59"/><text fill="#000000" font-family="sans-serif" font-size="14" lengthAdjust="spacing" textLength="30.8301" x="198.58" y="334.5851">Kind</text></g><!--entity Evaluator--><g class="entity" data-entity="Evaluator" data-source-line="12" data-uid="ent0008" id="entity_Evaluator"><rect fill="#F1F1F1" height="36.2969" rx="2.5" ry="2.5" style="stroke:#181818;stroke-width:0.5;" width="86.8623" x="257.57" y="175.29"/><text fill="#000000" font-family="sans-serif" font-size="14" lengthAdjust="spacing" textLength="66.8623" x="267.57" y="198.2851">Evaluator</text></g><!--entity Spec--><g class="entity" data-entity="Spec" data-source-line="16" data-uid="ent0010" id="entity_Spec"><rect fill="#F1F1F1" height="36.2969" rx="2.5" ry="2.5" style="stroke:#181818;stroke-width:0.5;" width="130.3594" x="399.82" y="540.18"/><text fill="#000000" font-family="sans-serif" font-size="14" lengthAdjust="spacing" textLength="110.3594" x="409.82" y="563.1751">FieldGraphSpec</text></g><!--entity Compiler--><g class="entity" data-entity="Compiler" data-source-line="17" data-uid="ent0011" id="entity_Compiler"><rect fill="#F1F1F1" height="36.2969" rx="2.5" ry="2.5" style="stroke:#181818;stroke-width:0.5;" width="159.2891" x="400.36" y="426.89"/><text fill="#000000" font-family="sans-serif" font-size="14" lengthAdjust="spacing" textLength="139.2891" x="410.36" y="449.8851">FieldGraphCompiler</text></g><!--entity Program--><g class="entity" data-entity="Program" data-source-line="18" data-uid="ent0012" id="entity_Program"><rect fill="#F1F1F1" height="36.2969" rx="2.5" ry="2.5" style="stroke:#181818;stroke-width:0.5;" width="112.9551" x="565.52" y="540.18"/><text fill="#000000" font-family="sans-serif" font-size="14" lengthAdjust="spacing" textLength="92.9551" x="575.52" y="563.1751">FieldProgram</text></g><!--entity Runtime--><g class="entity" data-entity="Runtime" data-source-line="19" data-uid="ent0013" id="entity_Runtime"><rect fill="#F1F1F1" height="36.2969" rx="2.5" ry="2.5" style="stroke:#181818;stroke-width:0.5;" width="112.4355" x="681.78" y="426.89"/><text fill="#000000" font-family="sans-serif" font-size="14" lengthAdjust="spacing" textLength="92.4355" x="691.78" y="449.8851">FieldRuntime</text></g><!--entity Textures--><g class="entity" data-entity="Textures" data-source-line="20" data-uid="ent0014" id="entity_Textures"><rect fill="#F1F1F1" height="36.2969" rx="2.5" ry="2.5" style="stroke:#181818;stroke-width:0.5;" width="132.123" x="1020.94" y="540.18"/><text fill="#000000" font-family="sans-serif" font-size="14" lengthAdjust="spacing" textLength="112.123" x="1030.94" y="563.1751">TextureRegistry</text></g><!--entity Grid--><g class="entity" data-entity="Grid" data-source-line="21" data-uid="ent0015" id="entity_Grid"><rect fill="#F1F1F1" height="36.2969" rx="2.5" ry="2.5" style="stroke:#181818;stroke-width:0.5;" width="165.0176" x="713.49" y="540.18"/><text fill="#000000" font-family="sans-serif" font-size="14" lengthAdjust="spacing" textLength="145.0176" x="723.49" y="563.1751">ChunkGrid / ChunkId</text></g><!--entity Raster--><g class="entity" data-entity="Raster" data-source-line="22" data-uid="ent0016" id="entity_Raster"><rect fill="#F1F1F1" height="36.2969" rx="2.5" ry="2.5" style="stroke:#181818;stroke-width:0.5;" width="65.459" x="913.27" y="540.18"/><text fill="#000000" font-family="sans-serif" font-size="14" lengthAdjust="spacing" textLength="45.459" x="923.27" y="563.1751">Raster</text></g><!--entity Cache--><g class="entity" data-entity="Cache" data-source-line="23" data-uid="ent0017" id="entity_Cache"><rect fill="#F1F1F1" height="36.2969" rx="2.5" ry="2.5" style="stroke:#181818;stroke-width:0.5;" width="156.4932" x="400.75" y="311.59"/><text fill="#000000" font-family="sans-serif" font-size="14" lengthAdjust="spacing" textLength="136.4932" x="410.75" y="334.5851">FieldProgramCache</text></g><!--reverse link Kind to Spec--><g class="link" data-entity-1="Kind" data-entity-2="Spec" data-source-line="27" data-uid="lnk18" id="link_Kind_Spec"><path d="M242.187,356.1815 C288.907,398.3615 398.87,497.63 445.66,539.87" fill="none" id="Kind-backto-Spec" style="stroke:#181818;stroke-width:1;"/><polygon fill="#181818" points="233.28,348.14,235.053,355.1297,242.187,356.1815,240.414,349.1917,233.28,348.14" style="stroke:#181818;stroke-width:1;"/></g><!--link Plan to Kind--><g class="link" data-entity-1="Plan" data-entity-2="Kind" data-source-line="28" data-uid="lnk19" id="link_Plan_Kind"><path d="M100.13,212 C125.23,237.74 167.5702,281.1451 192.6802,306.8851" fill="none" id="Plan-to-Kind" style="stroke:#181818;stroke-width:1;"/><polygon fill="#181818" points="196.87,311.18,193.4486,301.9445,193.3785,307.6009,187.7221,307.5309,196.87,311.18" style="stroke:#181818;stroke-width:1;"/><text fill="#000000" font-family="sans-serif" font-size="13" lengthAdjust="spacing" textLength="45.3984" x="146" y="256.6569">selects</text></g><!--link ScatterRunner to PositionSampling--><g class="link" data-entity-1="ScatterRunner" data-entity-2="PositionSampling" data-source-line="31" data-uid="lnk20" id="link_ScatterRunner_PositionSampling"><path d="M313.9,74.79 C338.13,82.27 365.53,92.89 388,107.29 C416.68,125.68 438.9738,151.2704 453.6938,170.3404" fill="none" id="ScatterRunner-to-PositionSampling" style="stroke:#181818;stroke-width:1;"/><polygon fill="#181818" points="457.36,175.09,455.0271,165.5214,454.3048,171.132,448.6943,170.4097,457.36,175.09" style="stroke:#181818;stroke-width:1;"/><text fill="#000000" font-family="sans-serif" font-size="13" lengthAdjust="spacing" textLength="121.291" x="410" y="120.3569">generate positions</text></g><!--link ScatterRunner to Plan--><g class="link" data-entity-1="ScatterRunner" data-entity-2="Plan" data-source-line="32" data-uid="lnk21" id="link_ScatterRunner_Plan"><path d="M192.21,72.34 C169.05,79.43 143.75,90.42 125,107.29 C104.66,125.6 94.7447,150.2073 89.0847,169.3073" fill="none" id="ScatterRunner-to-Plan" style="stroke:#181818;stroke-width:1;"/><polygon fill="#181818" points="87.38,175.06,93.7723,167.5674,88.8006,170.2661,86.102,165.2944,87.38,175.06" style="stroke:#181818;stroke-width:1;"/><text fill="#000000" font-family="sans-serif" font-size="13" lengthAdjust="spacing" textLength="125.1313" x="126" y="120.3569">use strategy/layers</text></g><!--link ScatterRunner to Evaluator--><g class="link" data-entity-1="ScatterRunner" data-entity-2="Evaluator" data-source-line="33" data-uid="lnk22" id="link_ScatterRunner_Evaluator"><path d="M254.44,77.68 C255.9,90.8 258.71,109.03 264,124.29 C270.3,142.48 277.9376,156.5273 286.2476,169.8673" fill="none" id="ScatterRunner-to-Evaluator" style="stroke:#181818;stroke-width:1;"/><polygon fill="#181818" points="289.42,174.96,288.0565,165.206,286.7763,170.7161,281.2662,169.4359,289.42,174.96" style="stroke:#181818;stroke-width:1;"/><text fill="#000000" font-family="sans-serif" font-size="13" lengthAdjust="spacing" textLength="118.9678" x="265" y="120.3569">evaluate positions</text></g><!--link ScatterRunner to Textures--><g class="link" data-entity-1="ScatterRunner" data-entity-2="Textures" data-source-line="34" data-uid="lnk23" id="link_ScatterRunner_Textures"><path d="M314.09,62.37 C521.21,70.71 1184,104.28 1184,192.44 C1184,192.44 1184,192.44 1184,446.03 C1184,487.3 1150.6134,517.3385 1122.1434,536.4285" fill="none" id="ScatterRunner-to-Textures" style="stroke:#181818;stroke-width:1;"/><polygon fill="#181818" points="1117.16,539.77,1126.8628,538.08,1121.3128,536.9854,1122.4074,531.4355,1117.16,539.77" style="stroke:#181818;stroke-width:1;"/><text fill="#000000" font-family="sans-serif" font-size="13" lengthAdjust="spacing" textLength="142.6001" x="1185" y="334.3069">provide base textures</text></g><!--link Evaluator to Cache--><g class="link" data-entity-1="Evaluator" data-entity-2="Cache" data-source-line="37" data-uid="lnk24" id="link_Evaluator_Cache"><path d="M324.27,212 C358.38,237.74 416.8206,281.8259 450.9306,307.5659" fill="none" id="Evaluator-to-Cache" style="stroke:#181818;stroke-width:1;"/><polygon fill="#181818" points="455.72,311.18,450.9454,302.5659,451.7289,308.1682,446.1265,308.9517,455.72,311.18" style="stroke:#181818;stroke-width:1;"/><text fill="#000000" font-family="sans-serif" font-size="13" lengthAdjust="spacing" textLength="172.999" x="386" y="256.6569">get_or_compile(kind, opts)</text></g><!--link Cache to Compiler--><g class="link" data-entity-1="Cache" data-entity-2="Compiler" data-source-line="38" data-uid="lnk25" id="link_Cache_Compiler"><path d="M479.15,347.95 C479.34,369.24 479.6067,399.3002 479.7967,420.6702" fill="none" id="Cache-to-Compiler" style="stroke:#181818;stroke-width:1;"/><polygon fill="#181818" points="479.85,426.67,483.7698,417.6348,479.8055,421.6702,475.7701,417.7059,479.85,426.67" style="stroke:#181818;stroke-width:1;"/><text fill="#000000" font-family="sans-serif" font-size="13" lengthAdjust="spacing" textLength="116.4287" x="481" y="392.9569">compile if needed</text></g><!--link Compiler to Spec--><g class="link" data-entity-1="Compiler" data-entity-2="Spec" data-source-line="39" data-uid="lnk26" id="link_Compiler_Spec"><path d="M455.06,463.64 C446.01,471.53 436.83,481.66 432,493.18 C425.22,509.35 431.8064,522.4721 442.7264,535.1621" fill="none" id="Compiler-to-Spec" style="stroke:#181818;stroke-width:1;stroke-dasharray:7.0,7.0;"/><polygon fill="#181818" points="446.64,539.71,443.8016,530.279,443.3787,535.92,437.7376,535.4972,446.64,539.71" style="stroke:#181818;stroke-width:1;"/><text fill="#000000" font-family="sans-serif" font-size="13" lengthAdjust="spacing" textLength="29.561" x="433" y="506.2469">read</text></g><!--link Compiler to Program--><g class="link" data-entity-1="Compiler" data-entity-2="Program" data-source-line="40" data-uid="lnk27" id="link_Compiler_Program"><path d="M499.32,463.44 C514.22,476.64 535.51,495.05 555,510.18 C568.14,520.39 578.3261,527.7203 590.8761,536.3503" fill="none" id="Compiler-to-Program" style="stroke:#181818;stroke-width:1;"/><polygon fill="#181818" points="595.82,539.75,590.6706,531.3546,591.7001,536.9169,586.1377,537.9464,595.82,539.75" style="stroke:#181818;stroke-width:1;"/><text fill="#000000" font-family="sans-serif" font-size="13" lengthAdjust="spacing" textLength="53.187" x="556" y="506.2469">produce</text></g><!--link Evaluator to Runtime--><g class="link" data-entity-1="Evaluator" data-entity-2="Runtime" data-source-line="43" data-uid="lnk28" id="link_Evaluator_Runtime"><path d="M329.04,212.01 C344.61,220.81 364.69,230.62 384,235.59 C423.42,245.74 530.42,225.73 567,243.59 C650.04,284.12 705.7657,380.1492 726.7357,421.1092" fill="none" id="Evaluator-to-Runtime" style="stroke:#181818;stroke-width:1;"/><polygon fill="#181818" points="729.47,426.45,728.9291,416.616,727.1914,421.9994,721.8081,420.2617,729.47,426.45" style="stroke:#181818;stroke-width:1;"/><text fill="#000000" font-family="sans-serif" font-size="13" lengthAdjust="spacing" textLength="169.9775" x="698" y="334.3069">create(program, textures)</text></g><!--link Runtime to Program--><g class="link" data-entity-1="Runtime" data-entity-2="Program" data-source-line="44" data-uid="lnk29" id="link_Runtime_Program"><path d="M681.57,456.24 C660.34,463.05 638.17,474.38 625,493.18 C615.53,506.7 615.1179,520.0967 617.2079,533.9967" fill="none" id="Runtime-to-Program" style="stroke:#181818;stroke-width:1;stroke-dasharray:7.0,7.0;"/><polygon fill="#181818" points="618.1,539.93,620.7173,530.4353,617.3566,534.9856,612.8063,531.6248,618.1,539.93" style="stroke:#181818;stroke-width:1;"/><text fill="#000000" font-family="sans-serif" font-size="13" lengthAdjust="spacing" textLength="95.9385" x="626" y="506.2469">interpret fields</text></g><!--link Runtime to Textures--><g class="link" data-entity-1="Runtime" data-entity-2="Textures" data-source-line="45" data-uid="lnk30" id="link_Runtime_Textures"><path d="M794.67,447.08 C851.98,450.08 941.87,460.26 1012,493.18 C1035.73,504.33 1053.7716,520.6873 1067.7616,535.5773" fill="none" id="Runtime-to-Textures" style="stroke:#181818;stroke-width:1;stroke-dasharray:7.0,7.0;"/><polygon fill="#181818" points="1071.87,539.95,1068.6225,530.6519,1068.4463,536.3061,1062.7922,536.1299,1071.87,539.95" style="stroke:#181818;stroke-width:1;"/><text fill="#000000" font-family="sans-serif" font-size="13" lengthAdjust="spacing" textLength="105.6377" x="1038" y="506.2469">sample textures</text></g><!--link Runtime to Grid--><g class="link" data-entity-1="Runtime" data-entity-2="Grid" data-source-line="46" data-uid="lnk31" id="link_Runtime_Grid"><path d="M732.78,463.57 C729.78,477.02 727.88,495.67 735,510.18 C740.96,522.32 746.7823,528.7969 757.6223,536.3269" fill="none" id="Runtime-to-Grid" style="stroke:#181818;stroke-width:1;stroke-dasharray:7.0,7.0;"/><polygon fill="#181818" points="762.55,539.75,757.4404,531.3303,758.4435,536.8975,752.8763,537.9006,762.55,539.75" style="stroke:#181818;stroke-width:1;"/><text fill="#000000" font-family="sans-serif" font-size="13" lengthAdjust="spacing" textLength="99.2329" x="736" y="506.2469">domain/chunks</text></g><!--link Runtime to Raster--><g class="link" data-entity-1="Runtime" data-entity-2="Raster" data-source-line="47" data-uid="lnk32" id="link_Runtime_Raster"><path d="M778.71,463.6 C797.59,472.07 820.19,482.65 840,493.18 C867.54,507.82 892.8234,523.246 913.9634,536.656" fill="none" id="Runtime-to-Raster" style="stroke:#181818;stroke-width:1;"/><polygon fill="#181818" points="919.03,539.87,913.5727,531.6713,914.8078,537.1917,909.2875,538.4268,919.03,539.87" style="stroke:#181818;stroke-width:1;"/><text fill="#000000" font-family="sans-serif" font-size="13" lengthAdjust="spacing" textLength="133.4277" x="870" y="506.2469">bake per field/chunk</text></g><!--SRC=[VLFBRXin3BphAuXScXHnVFSX5wCDYg90OFTM606pIwy5QoL1qgOrYlvxIMhNBmIvKPpXQqZblVKH4_Qm37qCddnPbuCZIDGKz9qZixCjGIwKA9H3f6nCn6QF7S5DnZuwwxiR-6i0VZs7R8iDVZswD-RVERd1mbb6xhg-LeFtb3OQxT2hyTtwLeqlR-W6B25T9jfQScsNCEx6N5_5yIIETQHc0vX1Z4j8vhEEQmayFOwKvnGuOw_WQ1ynxh7OdXGRRS5-qfyo95fHPtD91uL7NnPykHly_YdP5kQWzhTMEU8IV8KYwkQwXIKskrfBBPdy4wp8eIYRTpPc8mB1vzciJYcwmMps2EfUG2R7kyiIzWEjXwqBlys5tCg-NXP7TiGW5e8uOlczE2ctW27BKGYxEymT7YYzHpvka2EesXzddmHaVapXJKxl5RbKcOJbgUhoL8ywtAcAf53PT9ho4j9BKrTzouVUtaE89T-PIb7oU0ZC7ubWj-29MchD4NnuU5IjcPK8pm0LfEwjTjmE3Ud2wfrCGtEhLrrE1AxBAGlTnfhc_ZZgdPauKlvKnNgMB2Oge1yXNz3EzDFFUQRSEKtFSW5jwFb2verSvucWxUbnCkKLzxmnDhLOfPh_]--></g></svg>